<svg id="Capa_1" enable-background="new 0 0 488.47 488.47" height="512" viewBox="0 0 488.47 488.47" width="512" xmlns="http://www.w3.org/2000/svg"><path d="m488.47 78.366c0-43.207-35.166-78.366-78.381-78.366-22.45 0-43.871 9.658-58.763 26.5l-169.367 191.91c-41.879-11.428-88.126-1.325-121.661 31.37-37.014 36.083-32.199 73.537-27.965 106.58 4.457 34.667 8.303 64.61-27.727 99.739-3.786 3.696-5.396 9.077-4.234 14.248 1.148 5.157 4.889 9.36 9.883 11.089 12.641 4.397 30.902 7.035 52.145 7.035 53.486 0 125.904-16.782 175.171-64.819 23.985-23.385 37.193-54.236 37.193-86.877 0-10.496-1.828-20.655-4.465-30.587l191.666-169.084c16.845-14.875 26.505-36.292 26.505-58.738zm-272.216 323.438c-51.384 50.078-128.87 59.155-172.28 55.265 27.175-38.214 22.509-74.521 18.649-104.598-3.98-30.941-7.126-55.384 18.991-80.84 37.744-36.813 96.895-36.784 134.64 0 18.037 17.587 27.98 40.718 27.98 65.146.001 24.338-9.927 47.425-27.98 65.027zm225.513-287.577-183.931 162.26c-5.592-9.555-12.039-18.692-20.264-26.706-7.904-7.711-16.69-13.744-25.795-19.001l162.431-184.069c9.093-10.284 22.167-16.186 35.881-16.186 26.385 0 47.851 21.462 47.851 47.843 0 13.712-5.903 26.783-16.173 35.859z"/></svg>